<svg width="128" height="128" viewBox="0 0 128 128" fill="none" xmlns="http://www.w3.org/2000/svg">
<path d="M87.0563 14.4C86.1763 14.352 85.4226 15.0388 85.3906 15.9188C85.3426 16.7988 86.0325 17.552 86.9125 17.6H86.9906C87.8386 17.6 88.543 16.9265 88.575 16.0625C88.623 15.1825 87.9363 14.432 87.0563 14.4ZM43.0094 14.5594C42.1294 14.4634 41.3273 15.0888 41.2313 15.9688C41.1193 16.8488 41.7606 17.6318 42.6406 17.7438H42.8156C43.6156 17.7438 44.304 17.1535 44.4 16.3375C44.512 15.4575 43.8734 14.6554 43.0094 14.5594ZM80.7906 15.5875C80.5816 15.5805 80.3674 15.6169 80.1594 15.6969C79.3434 16.0169 78.9269 16.943 79.2469 17.775C79.5029 18.399 80.1131 18.8 80.7531 18.8C80.9451 18.8 81.1362 18.7675 81.3281 18.6875C82.1441 18.3675 82.5606 17.441 82.2406 16.625C82.0006 16.001 81.4176 15.6085 80.7906 15.5875ZM36.4063 15.7719C36.2003 15.8054 35.9974 15.88 35.8094 16C35.0574 16.464 34.8325 17.4574 35.3125 18.2094C35.6005 18.6894 36.1283 18.9594 36.6562 18.9594C36.9443 18.9594 37.2471 18.8791 37.5031 18.7031C38.2551 18.2391 38.4796 17.2489 38.0156 16.4969C37.6676 15.9449 37.0243 15.6714 36.4063 15.7719ZM48.9688 16.4375C48.3478 16.4112 47.7443 16.7558 47.4563 17.3438C47.0723 18.1438 47.425 19.1035 48.225 19.4875C48.433 19.5835 48.6729 19.6312 48.8969 19.6312C49.5049 19.6312 50.0811 19.2948 50.3531 18.7188C50.7211 17.9188 50.3844 16.9746 49.5844 16.5906C49.3844 16.4946 49.1758 16.4462 48.9688 16.4375ZM92.7281 16.8688C92.3201 16.8648 91.912 17.0161 91.6 17.3281C90.96 17.9521 90.9604 18.9604 91.5844 19.5844C91.8884 19.9044 92.3028 20.0625 92.7187 20.0625C93.1187 20.0625 93.5366 19.92 93.8406 19.6C94.4646 18.992 94.4802 17.9678 93.8562 17.3438C93.5442 17.0318 93.1361 16.8728 92.7281 16.8688ZM74.8063 18.5688C74.6 18.6038 74.3974 18.68 74.2094 18.8C73.4734 19.28 73.2481 20.273 73.7281 21.025C74.0321 21.489 74.5595 21.7438 75.0875 21.7438C75.3755 21.7438 75.6811 21.6635 75.9531 21.4875C76.6891 21.0235 76.8953 20.0332 76.4313 19.2812C76.0713 18.7292 75.425 18.4637 74.8063 18.5688ZM54.425 19.6906C53.7154 19.6695 53.0767 20.1185 52.8563 20.7934C52.6359 21.4682 52.8866 22.2076 53.4719 22.6094H53.475L53.4781 22.6125C56.1084 24.4631 58.8674 26.858 61.6594 29.6281C58.4407 33.0577 55.238 36.9893 52.1312 41.3281C45.995 41.8696 40.2808 42.8406 35.1156 44.1406C34.1381 40.298 33.48 36.6875 33.2469 33.4844C33.1976 32.6459 32.5086 31.9882 31.6687 31.9781C31.2168 31.9721 30.7833 32.1575 30.4755 32.4885C30.1677 32.8195 30.0143 33.2653 30.0531 33.7156C30.3035 37.1557 30.9922 40.9571 32.0094 44.9656C28.853 45.888 25.9385 46.939 23.3406 48.1156C23.1982 48.1773 23.0656 48.2595 22.9469 48.3594C22.8497 48.3846 22.7502 48.3861 22.6562 48.4312C21.8562 48.7992 21.5195 49.7594 21.8875 50.5594C22.1595 51.1354 22.7358 51.4719 23.3438 51.4719C23.5678 51.4719 23.8076 51.4241 24.0156 51.3281C24.1037 51.2858 24.1638 51.2143 24.2406 51.1594C24.3854 51.136 24.5263 51.0929 24.6594 51.0312C27.0782 49.9357 29.8262 48.946 32.8281 48.0687C34.3099 53.1262 36.3432 58.4983 38.9031 64.0094C36.6494 68.8641 34.7812 73.619 33.3594 78.1375C30.1557 77.2248 27.2186 76.1856 24.6625 75.0281H24.6594C24.6584 75.0271 24.6573 75.026 24.6563 75.025C24.6532 75.0236 24.65 75.0233 24.6469 75.0219C24.4572 74.9351 24.2523 74.8862 24.0438 74.8781C23.3951 74.8547 22.7965 75.2256 22.5286 75.8169C22.2607 76.4082 22.3766 77.1027 22.8219 77.575V77.5781C22.9615 77.7259 23.128 77.8458 23.3125 77.9312C23.3244 77.937 23.3317 77.9477 23.3438 77.9531C23.3709 77.9656 23.4005 77.9677 23.4281 77.9781C26.1248 79.1939 29.167 80.2732 32.4594 81.2156C32.0011 82.8656 31.5828 84.4921 31.2469 86.0625C31.1119 86.6271 31.2933 87.2205 31.7208 87.6132C32.1484 88.0058 32.7551 88.1361 33.3061 87.9537C33.8572 87.7712 34.2662 87.3046 34.375 86.7344C34.6989 85.2203 35.1068 83.6433 35.5531 82.0406C40.1733 83.1789 45.2484 84.0299 50.6438 84.5719C54.209 89.7608 57.9338 94.3877 61.6719 98.3688C60.0623 99.9678 58.4631 101.466 56.8938 102.769C56.4466 103.132 56.229 103.707 56.3238 104.275C56.4187 104.843 56.8114 105.316 57.3522 105.514C57.893 105.712 58.4984 105.604 58.9375 105.231C60.5763 103.871 62.2354 102.322 63.8969 100.675C66.2525 103.015 68.5991 105.095 70.9 106.85C70.9113 106.859 70.9166 106.872 70.9281 106.881V106.872C71.3814 107.234 71.9954 107.323 72.5327 107.103C73.07 106.884 73.4463 106.391 73.5161 105.815C73.5858 105.238 73.3381 104.67 72.8688 104.328C70.6795 102.66 68.4186 100.652 66.1344 98.3781C69.8735 94.401 73.6028 89.7784 77.1719 84.5906C82.5913 84.0537 87.6768 83.1905 92.3188 82.0531C93.0814 84.7843 93.6755 87.4015 94.0813 89.8594C94.2245 90.7318 95.0479 91.3229 95.9203 91.1797C96.7928 91.0364 97.3839 90.2131 97.2406 89.3406C96.8167 86.7727 96.2064 84.0614 95.425 81.25C98.141 80.4773 100.693 79.6161 103.013 78.6563C103.549 78.4429 103.928 77.9574 104.006 77.3856C104.084 76.8139 103.848 76.2445 103.389 75.8954C102.929 75.5463 102.317 75.4717 101.788 75.7C99.5806 76.6134 97.1255 77.4401 94.4938 78.1844C93.0645 73.6389 91.2057 68.8696 88.9344 63.9844C91.4996 58.4665 93.5259 53.1015 95.0125 48.0375C96.8413 48.569 98.6091 49.1274 100.231 49.7438C101.055 50.0631 101.982 49.6538 102.302 48.8297C102.621 48.0056 102.212 47.0787 101.388 46.7594C101.383 46.7576 101.379 46.7549 101.375 46.7531C101.373 46.7524 101.371 46.7539 101.369 46.7531C99.6492 46.0997 97.79 45.5109 95.8719 44.9531C96.5766 42.1921 97.1267 39.5301 97.4719 37.025V37.0219V37.0188C97.5412 36.5637 97.4111 36.1008 97.115 35.7484C96.8188 35.396 96.3852 35.1882 95.925 35.1781C95.11 35.1617 94.4128 35.7606 94.3063 36.5688C94.3059 36.5712 94.3035 36.5726 94.3031 36.575V36.5781C94.3031 36.5792 94.3031 36.5802 94.3031 36.5813C93.9788 38.9368 93.4576 41.4684 92.7844 44.1063C87.6078 42.8104 81.8529 41.8646 75.7063 41.3281C72.5901 36.9815 69.3782 33.0276 66.15 29.5969C68.4631 27.2947 70.7508 25.2637 72.9656 23.5844C73.5197 23.1754 73.7499 22.4578 73.5373 21.8029C73.3246 21.1479 72.7167 20.7024 72.0281 20.6969C71.6684 20.6945 71.3183 20.8134 71.0344 21.0344C68.6893 22.8125 66.2936 24.9345 63.8906 27.3219C60.9984 24.4595 58.119 21.9618 55.3219 19.9938C55.0604 19.8046 54.7477 19.6989 54.425 19.6906ZM32.7688 20.7312C32.1485 20.7545 31.5681 21.1354 31.3281 21.7594C31.0081 22.5754 31.4243 23.505 32.2563 23.825C32.4483 23.905 32.6396 23.9375 32.8156 23.9375C33.4716 23.9375 34.0788 23.5369 34.3188 22.8969C34.6388 22.0809 34.2226 21.1512 33.3906 20.8312C33.1866 20.7552 32.9755 20.7235 32.7688 20.7312ZM95.8781 22.4937C95.6744 22.4625 95.4589 22.4721 95.2469 22.5281C94.3829 22.7521 93.8733 23.6145 94.0813 24.4625C94.2733 25.1985 94.9273 25.6812 95.6313 25.6812C95.7593 25.6812 95.9033 25.6632 96.0313 25.6312C96.8793 25.4072 97.4084 24.5452 97.1844 23.6812C97.0164 23.0452 96.4894 22.5875 95.8781 22.4937ZM31.6969 26.9906C30.8169 26.9426 30.048 27.6009 30 28.4969C29.936 29.3769 30.6071 30.127 31.5031 30.175C31.5351 30.191 31.568 30.1906 31.6 30.1906C32.432 30.1906 33.136 29.5355 33.2 28.6875C33.248 27.8075 32.5769 27.0386 31.6969 26.9906ZM96.3375 28.8156C95.4575 28.8156 94.7531 29.5352 94.7531 30.4313C94.7531 31.3113 95.4731 32.0156 96.3531 32.0156C97.2331 32.0156 97.9531 31.2956 97.9531 30.4156C97.9531 29.5356 97.2335 28.8156 96.3375 28.8156ZM63.9094 31.9125C66.4537 34.627 69.0037 37.6983 71.5125 41.0375C69.051 40.9022 66.5559 40.8094 64 40.8094C61.3772 40.8094 58.8197 40.9081 56.2969 41.05C58.8082 37.6977 61.3609 34.6387 63.9094 31.9125ZM64 44.0094C67.414 44.0094 70.7454 44.1452 73.975 44.3906C76.1995 47.564 78.3682 50.955 80.4344 54.5344C82.2591 57.6958 83.9194 60.8544 85.4094 63.9687C83.908 67.1112 82.2453 70.2946 80.4031 73.4844C80.3957 73.4978 80.3884 73.5113 80.3813 73.525C80.3727 73.5394 80.3644 73.554 80.3563 73.5687C78.7446 76.3569 77.066 79.0132 75.3532 81.5594C71.697 81.8783 67.9031 82.0531 64 82.0531C60.0432 82.0531 56.1904 81.878 52.4875 81.55C50.7695 78.9946 49.0811 76.3422 47.4657 73.5437C45.6123 70.3323 43.9636 67.1319 42.4563 63.9687C43.9573 60.8294 45.6121 57.65 47.4532 54.4625C47.4563 54.4573 47.4594 54.4521 47.4626 54.4468C47.4678 54.4386 47.473 54.4302 47.4782 54.4219C49.5161 50.8936 51.6556 47.5561 53.8469 44.4219C57.1364 44.1662 60.5186 44.0094 64 44.0094ZM78.0906 44.7844C83.0485 45.3287 87.6984 46.1444 91.9188 47.1937C90.6989 51.3316 89.0932 55.7074 87.1094 60.225C85.8935 57.8066 84.6139 55.3763 83.2063 52.9375C81.5609 50.0871 79.8394 47.3918 78.0906 44.7844ZM49.7156 44.8188C48.0022 47.3788 46.3197 50.0285 44.7063 52.8219C44.6989 52.8344 44.6912 52.8472 44.6844 52.8594C44.6826 52.8624 44.6831 52.8657 44.6813 52.8688C43.2636 55.3237 41.964 57.7717 40.7407 60.2063C38.7772 55.7198 37.1507 51.3498 35.9406 47.2406C40.1424 46.1884 44.7757 45.3708 49.7156 44.8188ZM106.781 49.2719C106.157 49.2141 105.528 49.5245 105.216 50.1125C104.8 50.8965 105.103 51.8559 105.887 52.2719C106.127 52.3999 106.385 52.4625 106.641 52.4625C107.201 52.4625 107.759 52.1596 108.047 51.6156C108.463 50.8476 108.159 49.8722 107.391 49.4562C107.195 49.3522 106.99 49.2911 106.781 49.2719ZM18.0688 51.475C17.6648 51.405 17.2305 51.4878 16.8625 51.7438C16.1425 52.2558 15.9693 53.2488 16.4813 53.9688C16.8013 54.4168 17.2946 54.6563 17.7906 54.6563C18.1106 54.6563 18.4311 54.5611 18.7031 54.3531L18.7188 54.3688C19.4388 53.8568 19.6151 52.8482 19.1031 52.1282C18.8471 51.7682 18.4728 51.545 18.0688 51.475ZM111.828 52.8031C111.42 52.8351 111.026 53.0234 110.738 53.3594C110.162 54.0314 110.256 55.0396 110.928 55.6156C111.232 55.8716 111.601 56 111.953 56C112.417 56 112.864 55.809 113.184 55.425C113.744 54.753 113.663 53.7444 112.991 53.1844C112.655 52.8964 112.236 52.7711 111.828 52.8031ZM64 54.4063C58.6976 54.4063 54.4 58.7039 54.4 64.0063C54.4 69.3087 58.6976 73.6063 64 73.6063C69.3024 73.6063 73.6 69.3087 73.6 64.0063C73.6 58.7039 69.3024 54.4063 64 54.4063ZM12.9125 55.8531C12.5065 55.9171 12.1279 56.1369 11.8719 56.4969C11.3599 57.2169 11.5206 58.2255 12.2406 58.7375C12.5126 58.9295 12.8488 59.0406 13.1688 59.0406C13.6648 59.0406 14.1585 58.8007 14.4625 58.3687C14.9905 57.6487 14.8165 56.6557 14.1125 56.1437C13.7525 55.8797 13.3185 55.7891 12.9125 55.8531ZM115.897 57.7344C115.69 57.7429 115.481 57.7915 115.281 57.8875C114.481 58.2555 114.129 59.2 114.497 60C114.769 60.592 115.345 60.9281 115.953 60.9281C116.177 60.9281 116.401 60.8804 116.625 60.7844C117.425 60.4164 117.777 59.4562 117.409 58.6562C117.121 58.0562 116.518 57.7089 115.897 57.7344ZM11.1375 61.7906C10.2607 61.8385 9.57311 62.5709 9.61564 63.4625C9.65084 64.3234 10.3538 64.9906 11.2156 64.9906H11.2813C12.1613 64.9586 12.848 64.2081 12.8 63.3281C12.768 62.4321 12.0175 61.7586 11.1375 61.7906ZM116.253 63.9625C115.634 64.0217 115.073 64.4479 114.881 65.0719V65.0875C114.625 65.9195 115.09 66.8155 115.938 67.0875C116.082 67.1355 116.256 67.1531 116.4 67.1531C117.088 67.1531 117.714 66.7193 117.938 66.0313C118.194 65.1993 117.729 64.3033 116.881 64.0313C116.673 63.9633 116.46 63.9427 116.253 63.9625ZM13.7844 67.6125C13.3764 67.5685 12.9534 67.6811 12.6094 67.9531C11.9214 68.5131 11.8088 69.5214 12.3688 70.2094C12.6728 70.5934 13.1356 70.8 13.6156 70.8C13.9676 70.8 14.3214 70.6869 14.6094 70.4469C15.2974 69.9029 15.4065 68.8974 14.8625 68.2094C14.5825 67.8574 14.1924 67.6565 13.7844 67.6125ZM40.7281 67.7187C41.9635 70.1811 43.2598 72.656 44.6938 75.1406C44.6938 75.1417 44.6938 75.1427 44.6938 75.1437C45.8767 77.1931 47.0981 79.1647 48.3375 81.0906C44.1142 80.5686 40.1255 79.8537 36.4594 78.9594C37.5999 75.3566 39.0287 71.5857 40.7281 67.7187ZM87.1156 67.7187C88.8209 71.5971 90.2403 75.3721 91.3844 78.9844C87.6951 79.8782 83.7112 80.6082 79.4625 81.125C80.7064 79.1955 81.9347 77.2255 83.1219 75.1719C83.1617 75.1083 83.1885 75.0605 83.2188 75C84.6242 72.5628 85.9015 70.1354 87.1156 67.7187ZM112.931 69.225C112.523 69.215 112.111 69.3585 111.791 69.6625C111.151 70.2705 111.136 71.2975 111.728 71.9375C112.048 72.2575 112.465 72.4156 112.897 72.4156C113.297 72.4156 113.696 72.2724 114 71.9844C114.64 71.3764 114.655 70.3525 114.047 69.7125C113.743 69.4005 113.339 69.235 112.931 69.225ZM18.0781 71.85C17.6761 71.928 17.3043 72.1601 17.0563 72.5281C16.5603 73.2641 16.7671 74.2571 17.5031 74.7531C17.7751 74.9291 18.0804 75.025 18.3844 75.025C18.9124 75.025 19.4085 74.7671 19.7125 74.3031C20.2085 73.5671 20.0173 72.5769 19.2813 72.0969C18.9133 71.8489 18.4801 71.772 18.0781 71.85ZM107.534 72.9969C107.327 73.0224 107.12 73.088 106.928 73.2C106.176 73.632 105.905 74.623 106.353 75.375C106.641 75.903 107.184 76.175 107.728 76.175C108 76.175 108.288 76.1127 108.528 75.9687C109.296 75.5207 109.567 74.5426 109.119 73.7906C108.795 73.2146 108.158 72.9204 107.534 72.9969ZM54.825 84.9156C57.8151 85.1175 60.8636 85.2531 64 85.2531C67.0731 85.2531 70.0637 85.1255 72.9969 84.9313C70.0178 89.0723 66.9594 92.808 63.9094 96.0656C60.8614 92.8052 57.8016 89.0569 54.825 84.9156ZM31.9531 91.1188C31.0731 91.0228 30.271 91.6638 30.175 92.5438C30.095 93.4238 30.72 94.2071 31.6 94.3031C31.664 94.3031 31.711 94.3188 31.775 94.3188C32.575 94.3188 33.2794 93.7133 33.3594 92.8813C33.4554 92.0013 32.8331 91.2147 31.9531 91.1188ZM96.1906 93.4875C95.3106 93.5355 94.6395 94.2887 94.6875 95.1687C94.7355 96.0167 95.4395 96.6719 96.2875 96.6719H96.3844C97.2644 96.6239 97.9355 95.871 97.8875 94.975C97.8395 94.095 97.0706 93.4235 96.1906 93.4875ZM31.4719 97.5031C30.5759 97.5511 29.9051 98.3044 29.9531 99.1844C29.9851 100.032 30.7051 100.703 31.5531 100.703H31.6313C32.5113 100.655 33.1855 99.905 33.1375 99.025C33.1055 98.145 32.3519 97.4551 31.4719 97.5031ZM96.3375 99.8719C95.4575 99.7599 94.6401 100.383 94.5281 101.247C94.4161 102.127 95.0231 102.928 95.9031 103.056C95.9671 103.056 96.0485 103.072 96.1125 103.072C96.8965 103.072 97.6009 102.481 97.6969 101.681C97.8249 100.801 97.2015 99.9999 96.3375 99.8719ZM32.7719 103.778C32.5649 103.767 32.3518 103.796 32.1438 103.872C31.3118 104.16 30.8808 105.087 31.1688 105.919C31.4088 106.575 32.0159 106.975 32.6719 106.975C32.8479 106.975 33.0396 106.945 33.2156 106.881C34.0476 106.593 34.479 105.663 34.175 104.847C33.959 104.211 33.3929 103.811 32.7719 103.778ZM54.3719 105.344C53.9679 105.272 53.5368 105.352 53.1688 105.6C52.4488 106.112 52.2728 107.105 52.7688 107.825C53.0888 108.273 53.5853 108.513 54.0813 108.513C54.4013 108.513 54.7214 108.433 55.0094 108.241C55.7294 107.729 55.9054 106.736 55.4094 106C55.1534 105.64 54.7759 105.416 54.3719 105.344ZM94.4219 105.953C93.8024 105.872 93.1673 106.161 92.8313 106.737C92.3993 107.505 92.657 108.48 93.425 108.928C93.681 109.072 93.953 109.137 94.225 109.137C94.785 109.137 95.3116 108.849 95.6156 108.337C96.0476 107.569 95.793 106.591 95.025 106.159C94.833 106.047 94.6284 105.98 94.4219 105.953ZM77.3969 107.534C76.7781 107.469 76.149 107.777 75.825 108.353C75.409 109.121 75.6789 110.096 76.4469 110.528C76.7029 110.656 76.9593 110.719 77.2313 110.719C77.7913 110.719 78.337 110.431 78.625 109.903C79.057 109.135 78.784 108.16 78 107.728C77.808 107.62 77.6031 107.556 77.3969 107.534ZM48.5063 108.528C48.298 108.534 48.0875 108.58 47.8875 108.672C47.0875 109.04 46.7351 110 47.1031 110.8C47.3751 111.392 47.9514 111.728 48.5594 111.728C48.7834 111.728 49.0073 111.68 49.2313 111.584C50.0313 111.216 50.3836 110.256 50.0156 109.456C49.7396 108.856 49.131 108.509 48.5063 108.528ZM36.0531 108.919C35.6491 108.995 35.273 109.224 35.025 109.584C34.529 110.304 34.7046 111.313 35.4406 111.809C35.7126 112.001 36.0335 112.097 36.3375 112.097C36.8495 112.097 37.3425 111.855 37.6625 111.391C38.1585 110.671 37.9669 109.681 37.2469 109.169C36.8869 108.921 36.4571 108.843 36.0531 108.919ZM89.5781 109.969C89.3706 109.952 89.1558 109.975 88.9438 110.047C88.1118 110.319 87.6468 111.215 87.9188 112.063C88.1428 112.735 88.7686 113.169 89.4406 113.169C89.6006 113.169 89.7775 113.136 89.9375 113.088C90.7855 112.816 91.2314 111.904 90.9594 111.072C90.7554 110.436 90.2006 110.017 89.5781 109.969ZM82.8813 109.975C82.264 110.076 81.7404 110.533 81.5844 111.169C81.3604 112.033 81.8895 112.895 82.7375 113.119V113.103C82.8655 113.151 83.0095 113.169 83.1375 113.169C83.8415 113.169 84.4955 112.673 84.6875 111.953C84.8955 111.089 84.3827 110.224 83.5187 110C83.3027 109.948 83.087 109.942 82.8813 109.975ZM42.3031 110.319C41.4231 110.399 40.7669 111.167 40.8469 112.047C40.9269 112.879 41.6309 113.503 42.4469 113.503H42.5906C43.4706 113.423 44.1272 112.639 44.0312 111.759C43.9672 110.879 43.1831 110.239 42.3031 110.319Z" fill="#8EB4C3" fill-opacity="0.56078"/>
</svg>
