<svg width="100" height="100" viewBox="0 0 100 100" fill="none" xmlns="http://www.w3.org/2000/svg">
<path opacity="0.4" d="M76.3752 23.625L27.4585 72.5417C25.6252 74.375 22.5418 74.125 21.0418 71.9584C15.8752 64.4167 12.8335 55.5 12.8335 46.3334V28.0417C12.8335 24.625 15.4168 20.75 18.5835 19.4584L41.7919 9.95837C47.0419 7.79171 52.8752 7.79171 58.1252 9.95837L74.9586 16.8333C77.7502 17.9583 78.4586 21.5417 76.3752 23.625Z" fill="#8EB4C3" fill-opacity="0.309804"/>
<path d="M80.2913 29.3339C82.9997 27.0422 87.1247 29.0005 87.1247 32.5422V46.3338C87.1247 66.7088 72.333 85.7921 52.1247 91.3755C50.7497 91.7505 49.2497 91.7505 47.833 91.3755C41.9163 89.7088 36.4163 86.9171 31.708 83.2505C29.708 81.7088 29.4997 78.7921 31.2497 77.0005C40.3331 67.7088 66.9163 40.6256 80.2913 29.3339Z" fill="#8EB4C3" fill-opacity="0.309804"/>
</svg>
