<svg width="100" height="100" viewBox="0 0 100 100" fill="none" xmlns="http://www.w3.org/2000/svg">
<g clip-path="url(#clip0_145_26)">
<path d="M99.5943 56.3317C99.8701 54.2631 99.9926 52.1485 99.9926 50.0036C99.9926 47.8583 99.8701 45.7288 99.5943 43.6602C93.2969 42.6795 88.2561 41.561 87.7963 39.8602C87.3213 38.0981 91.1059 34.5586 96.0703 30.5444C94.4309 26.6831 92.3316 23.067 89.8342 19.7729C83.8893 22.0713 78.94 23.6186 77.6529 22.3471C76.3813 21.0754 77.9289 16.111 80.2271 10.1811C76.9482 7.66841 73.317 5.56919 69.4557 3.92974C65.4414 8.87896 61.902 12.6788 60.1398 12.2038C58.4391 11.7594 57.3051 6.70317 56.3398 0.405713C54.2715 0.145166 52.1416 0.00708008 49.9965 0.00708008C47.8514 0.00708008 45.7369 0.144971 43.6686 0.405713C42.7029 6.70317 41.5693 11.7592 39.8686 12.2038C38.1066 12.6788 34.567 8.87896 30.568 3.92974C26.6916 5.55396 23.0756 7.66841 19.7814 10.1811C22.0645 16.111 23.6119 21.0754 22.3402 22.3471C21.0684 23.6188 16.1193 22.0713 10.1744 19.7729C7.67695 23.0672 5.5623 26.6833 3.93828 30.5444C8.8873 34.5588 12.6721 38.0983 12.2125 39.8602C11.7527 41.561 6.71172 42.6795 0.414258 43.6602C0.138086 45.7288 0 47.8584 0 50.0036C0 52.1485 0.138086 54.2631 0.413672 56.3317C6.71113 57.3124 11.7521 58.4309 12.2119 60.1317C12.6715 61.8936 8.87148 65.4331 3.92246 69.4475C5.56191 73.3086 7.66113 76.9247 10.174 80.219C16.1189 77.9206 21.068 76.3733 22.3398 77.6448C23.6115 78.9165 22.0641 83.8809 19.7811 89.826C23.06 92.3389 26.6914 94.4381 30.5523 96.0622C34.5668 91.1129 38.1064 87.3131 39.8684 87.7881C41.5691 88.2325 42.7029 93.2889 43.6684 99.5862C45.7367 99.862 47.8512 100 49.9963 100C52.1414 100 54.2713 99.862 56.3397 99.5862C57.3049 93.2889 58.4389 88.2327 60.1397 87.7881C61.9018 87.3131 65.4412 91.1129 69.4555 96.0622C73.3168 94.4381 76.948 92.3387 80.227 89.826C77.9287 83.8811 76.3811 78.9166 77.6527 77.6448C78.9398 76.3731 83.8889 77.9206 89.834 80.219C92.3469 76.9247 94.4459 73.3086 96.0701 69.4475C91.1211 65.4331 87.3213 61.8936 87.7961 60.1317C88.2561 58.4309 93.2971 57.3124 99.5943 56.3317ZM66.1154 52.0567C65.9316 53.5584 65.5484 54.9832 64.9816 56.3165C64.4453 57.5729 63.7711 58.7528 62.9438 59.8252C62.0551 61.0051 60.9978 62.0471 59.8334 62.951C58.7609 63.7629 57.5809 64.4372 56.3244 64.9735C54.9914 65.5401 53.5512 65.9387 52.0648 66.1225C51.3906 66.2143 50.7012 66.2452 49.9963 66.2452C49.3068 66.2452 48.6174 66.2143 47.9432 66.1225C46.4414 65.9387 45.0166 65.5401 43.6836 64.9735C42.427 64.4372 41.2473 63.7629 40.1748 62.951C38.9949 62.0469 37.9529 61.0051 37.049 59.8252C36.2371 58.7528 35.5477 57.5729 35.0266 56.3165C34.4594 54.9832 34.0611 53.5584 33.8773 52.0567C33.7854 51.3827 33.7547 50.693 33.7547 50.0036C33.7547 49.2989 33.7852 48.6092 33.8773 47.935C34.0611 46.4489 34.4594 45.0086 35.0266 43.6754C35.5629 42.419 36.2369 41.2545 37.049 40.1819C37.9531 39.002 38.9949 37.945 40.1748 37.0563C41.2475 36.244 42.4271 35.5545 43.6836 35.0182C45.0166 34.4512 46.4414 34.0682 47.9432 33.8844C48.6174 33.7924 49.3068 33.7463 49.9963 33.7463C50.7012 33.7463 51.3906 33.7924 52.0648 33.8844C53.551 34.068 54.9914 34.4667 56.3244 35.0182C57.5809 35.5545 58.7607 36.244 59.8334 37.0563C60.9978 37.9448 62.0551 39.002 62.9438 40.1819C63.7559 41.2545 64.4453 42.419 64.9816 43.6754C65.5332 45.0086 65.9316 46.4487 66.1154 47.935C66.2072 48.6092 66.2531 49.2989 66.2531 50.0036C66.2531 50.693 66.2072 51.3827 66.1154 52.0567Z" fill="#8EB4C3" fill-opacity="0.31"/>
<path d="M35.0266 43.6684C35.5631 42.4119 36.2371 41.2473 37.049 40.1748C37.9531 38.9949 38.9949 37.9379 40.1748 37.0492C41.2473 36.2373 42.4271 35.5477 43.6836 35.0113C45.0166 34.4443 46.4414 34.0613 47.9432 33.8775C48.6172 33.7855 49.3068 33.7396 49.9963 33.7396V0C47.8512 0 45.7367 0.137891 43.6684 0.398242C42.7027 6.6957 41.5691 11.7521 39.8684 12.1965C38.1064 12.6715 34.5668 8.87129 30.5678 3.92246C26.6914 5.54668 23.0754 7.66113 19.7809 10.1738C22.0639 16.1035 23.6115 21.0682 22.3398 22.3398C21.068 23.6115 16.1189 22.0641 10.174 19.7656C7.67656 23.06 5.56191 26.676 3.93789 30.5371C8.88691 34.5516 12.6717 38.0908 12.2117 39.8529C11.7521 41.5535 6.71133 42.6723 0.413672 43.6529C0.137695 45.7215 0 47.8512 0 49.9965C0 52.1414 0.137695 54.2561 0.413672 56.3244C6.71113 57.3051 11.7521 58.4236 12.2117 60.1244C12.6717 61.8865 8.87148 65.4258 3.92246 69.4402C5.56191 73.3014 7.66113 76.9176 10.174 80.2117C16.1189 77.9135 21.068 76.3658 22.3398 77.6377C23.6115 78.9094 22.0639 83.8736 19.7809 89.8188C23.0598 92.3316 26.6914 94.4311 30.5523 96.0551C34.5668 91.1059 38.1064 87.3061 39.8684 87.7809C41.5691 88.2254 42.7029 93.2816 43.6684 99.5789C45.7367 99.8547 47.8512 99.9928 49.9963 99.9928V66.2381C49.3068 66.2381 48.6174 66.2072 47.9432 66.1154C46.4414 65.9316 45.0166 65.5332 43.6836 64.9664C42.427 64.4299 41.2473 63.7559 40.1748 62.9438C38.9949 62.0398 37.9529 60.9979 37.049 59.818C36.2371 58.7455 35.5477 57.5656 35.0266 56.3092C34.4596 54.976 34.0613 53.5512 33.8775 52.0494C33.7855 51.3752 33.7547 50.6857 33.7547 49.9963C33.7547 49.2914 33.7854 48.602 33.8775 47.9277C34.0613 46.4416 34.4596 45.0014 35.0266 43.6684Z" fill="#8EB4C3" fill-opacity="0.31"/>
<path d="M49.9885 25.6029C36.5203 25.6029 25.5957 36.5277 25.5957 50.0113C25.5957 63.4795 36.5203 74.4043 49.9885 74.4043C63.4719 74.4043 74.3969 63.4795 74.3969 50.0113C74.3969 36.5277 63.4719 25.6029 49.9885 25.6029ZM66.1076 52.0644C65.9236 53.566 65.5406 54.9912 64.9736 56.3242C64.4373 57.5806 63.7631 58.7603 62.9359 59.8328C62.0471 61.0129 60.99 62.0547 59.8254 62.9586C58.7529 63.7707 57.5729 64.4449 56.3166 64.981C54.9836 65.548 53.5432 65.9463 52.057 66.1302C51.3828 66.222 50.6932 66.2529 49.9883 66.2529C49.2988 66.2529 48.6094 66.2222 47.9352 66.1302C46.4334 65.9463 45.0086 65.548 43.6756 64.981C42.4189 64.4449 41.2395 63.7707 40.1666 62.9586C38.9869 62.0545 37.9447 61.0127 37.041 59.8328C36.2289 58.7603 35.5395 57.5806 35.0186 56.3242C34.4516 54.9912 34.0531 53.566 33.8691 52.0644C33.7773 51.3904 33.7467 50.7008 33.7467 50.0113C33.7467 49.3064 33.7771 48.6168 33.8691 47.9427C34.0531 46.4566 34.4516 45.0162 35.0186 43.6832C35.5547 42.4265 36.2289 41.2623 37.041 40.1898C37.9449 39.0097 38.9869 37.9527 40.1666 37.064C41.2395 36.2521 42.4189 35.5623 43.6756 35.0261C45.0086 34.4593 46.4334 34.0763 47.9352 33.8924C48.6094 33.8006 49.2988 33.7545 49.9883 33.7545C50.6932 33.7545 51.3828 33.8006 52.057 33.8924C53.5432 34.0763 54.9836 34.4746 56.3166 35.0261C57.5729 35.5623 58.7529 36.2521 59.8254 37.064C60.9898 37.9529 62.0471 39.0099 62.9359 40.1898C63.748 41.2623 64.4373 42.4267 64.9736 43.6832C65.5252 45.0162 65.9236 46.4564 66.1076 47.9427C66.1994 48.6168 66.2453 49.3064 66.2453 50.0113C66.2453 50.7008 66.1996 51.3902 66.1076 52.0644Z" fill="#BFE5F4" fill-opacity="0.41"/>
</g>
<defs>
<clipPath id="clip0_145_26">
<rect width="100" height="100" fill="white"/>
</clipPath>
</defs>
</svg>
